PathFileType	4	(X/Y/Z)	/Users/niels/Desktop/University/Third Semester/Perception and Action/Exam/Gymnastics Motion Tracking/Code for Gym Tracking/Analyzed Data/Webcam_Backflip/id1_2_trajectory_Sports2D/id1_2_trajectory_Sports2D_px_person00.trc
DataRate	CameraRate	NumFrames	NumMarkers	Units	OrigDataRate	OrigDataStartFrame	OrigNumFrames
29.92822966507177	29.92822966507177	10	22	m	29.92822966507177	365	418
Frame#	Time	Hip			RHip			RKnee			RAnkle			RBigToe			RSmallToe			RHeel			LHip			LKnee			LAnkle			LBigToe			LSmallToe			LHeel			Neck			Head			Nose			RShoulder			RElbow			RWrist			LShoulder			LElbow			LWrist		
		X1	Y1	Z1	X2	Y2	Z2	X3	Y3	Z3	X4	Y4	Z4	X5	Y5	Z5	X6	Y6	Z6	X7	Y7	Z7	X8	Y8	Z8	X9	Y9	Z9	X10	Y10	Z10	X11	Y11	Z11	X12	Y12	Z12	X13	Y13	Z13	X14	Y14	Z14	X15	Y15	Z15	X16	Y16	Z16	X17	Y17	Z17	X18	Y18	Z18	X19	Y19	Z19	X20	Y20	Z20	X21	Y21	Z21	X22	Y22	Z22
365	12.195843325339728	0.9294360775650186	-0.6096323599313842	0.0	0.9219241377513709	-0.6098172093245009	0.0	0.9144198999683638	-0.8699687613873599	0.0	0.7800108853171569	-1.0652673918871338	0.0	0.8504816808379866	-1.0990479992170907	0.0	0.8166337975275274	-1.1024095724643477	0.0	0.7510721798660819	-1.0801946569841911	0.0	0.9471013428327844	-0.6098073706461867	0.0	0.9595831724209263	-0.8610807679986751	0.0	0.9209953397188326	-1.0623702549103478	0.0	1.0230783476601129	-1.0797040291252487	0.0	0.973196913517411	-1.0756756618720127	0.0	0.8998249053562767	-1.0766721469580474	0.0	0.9454009075041636	-0.2595794928925997	0.0	0.9977545267170327	-0.11438525231695182	0.0	1.010830434751925	-0.20445109680650525	0.0	0.9104715971141784	-0.2952564804828782	0.0	0.852828233010662	-0.47111916596150155	0.0	0.8709265062519252	-0.6281544718390707	0.0	0.9358794200344303	-0.30395089800234715	0.0	0.8825066698135496	-0.461918199175877	0.0	0.9015533693898949	-0.6032859210643013	0.0
366	12.22925659472422	0.9211393229776935	-0.6101744863586619	0.0	0.910556595213709	-0.6103799791929768	0.0	0.8854663329776302	-0.8700571086054449	0.0	0.7659714219145668	-1.0658221631120064	0.0	0.8440298184106809	-1.0920317111480626	0.0	0.8070993888898619	-1.0984058494012563	0.0	0.7395508493177184	-1.080276657324898	0.0	0.9410964013012615	-0.6111953743239011	0.0	0.9618927606525556	-0.8567500141653634	0.0	0.9243891080274234	-1.0625335746513216	0.0	1.0191518328170612	-1.0764985942723537	0.0	0.976762643223438	-1.0730336956556896	0.0	0.903480461770659	-1.0755130616539477	0.0	0.9449730013354323	-0.2621771445690215	0.0	0.9981256488929764	-0.11685287619537632	0.0	1.0101864347245344	-0.20669167994811888	0.0	0.9076642889957942	-0.29792410863164065	0.0	0.8428120775398608	-0.4707264896507791	0.0	0.8461160699457314	-0.6298345190005284	0.0	0.935172665729815	-0.30647461607056237	0.0	0.8766765515163859	-0.4617617485759207	0.0	0.8807018796430519	-0.6035990825182738	0.0
367	12.262669864108712	0.9118889551855075	-0.6110754854932439	0.0	0.8982426217454338	-0.6116847580108825	0.0	0.862328963736466	-0.869330026414103	0.0	0.759293757166553	-1.0671070494685826	0.0	0.8445892420331859	-1.087782944827317	0.0	0.8058185872911167	-1.09682605314398	0.0	0.7354532098524671	-1.0815408653146932	0.0	0.934578501538411	-0.6131559015115267	0.0	0.9673178220220227	-0.8495593892389205	0.0	0.9328794491790641	-1.0626700899839931	0.0	1.017120617248959	-1.0740012108367518	0.0	0.9873933258680274	-1.070971803260954	0.0	0.9118637105552537	-1.0749370935514315	0.0	0.943646043826376	-0.2654737568705946	0.0	0.9980979272300758	-0.12085050537752286	0.0	1.0089913897457996	-0.21016360758536543	0.0	0.9032809961610484	-0.30165164948519035	0.0	0.8347784420023124	-0.4715799265324394	0.0	0.8279507459349561	-0.6309591314581345	0.0	0.934194754737856	-0.3100735440152561	0.0	0.8731519284580841	-0.4628144617228422	0.0	0.8667910909369692	-0.6033817442493938	0.0
368	12.296083133493205	0.9027270705009054	-0.6123958334955991	0.0	0.8863956382924651	-0.6136593578671424	0.0	0.8450595943586869	-0.8691172464963246	0.0	0.7571326525330853	-1.0687495976741963	0.0	0.8478046041936369	-1.0868517000806341	0.0	0.808736491756663	-1.0976945805507012	0.0	0.7355274717375472	-1.0835306356772185	0.0	0.9278952471998653	-0.615496426238603	0.0	0.9741522960679775	-0.8409783222394668	0.0	0.9402638390158414	-1.0621351783965007	0.0	1.0157397563052484	-1.072804446082107	0.0	0.9979877351807985	-1.0698376424549856	0.0	0.9186764540781746	-1.0745322416360206	0.0	0.9414194270010572	-0.2688530579872196	0.0	0.9973821590300154	-0.1255327037249994	0.0	1.0070957146741617	-0.21415687471444061	0.0	0.8976538430308626	-0.3055310475115171	0.0	0.8285245464954976	-0.47320271630557953	0.0	0.8163453171292813	-0.632513375856783	0.0	0.9328508600737025	-0.3140062408671958	0.0	0.8712990313858531	-0.46477441450572143	0.0	0.8610245268051362	-0.6036133663629876	0.0
369	12.329496402877698	0.894704466223178	-0.6138788028431137	0.0	0.876152898206448	-0.6159135378510865	0.0	0.8328637942393718	-0.8698577079395049	0.0	0.7571414623833876	-1.0703790056897475	0.0	0.850843709771351	-1.0884132101968316	0.0	0.8130518837027618	-1.100001150321191	0.0	0.737251816709658	-1.0856138181758523	0.0	0.9216308770355588	-0.6178596626885746	0.0	0.980272864894583	-0.8328443203234693	0.0	0.9424188099151222	-1.0605140634590864	0.0	1.013672942368051	-1.0727468328128429	0.0	1.0038578601149835	-1.0693787371103496	0.0	0.9199870293406927	-1.073763199579249	0.0	0.9385154887926355	-0.2717605421687585	0.0	0.9958164951544918	-0.13000562967543441	0.0	1.0044422978904857	-0.2179269255459898	0.0	0.8913364670321857	-0.308732372775299	0.0	0.8235419738566314	-0.47497104138669227	0.0	0.8106624051824894	-0.6347561997009633	0.0	0.931261717430729	-0.3176318824362855	0.0	0.8708042140972378	-0.4671257532502477	0.0	0.8628996807306832	-0.6044516454730249	0.0
370	12.362909672262191	0.8886364757153942	-0.6149924217435758	0.0	0.8682210994396523	-0.6178564381596781	0.0	0.8247633534804303	-0.8709105803791471	0.0	0.7578335117943005	-1.0715852512779342	0.0	0.8523814892257332	-1.090911929769282	0.0	0.8171744657507035	-1.102242493282197	0.0	0.7391674280412114	-1.0871249967723986	0.0	0.9164134241009421	-0.6197724238420741	0.0	0.983678000461828	-0.8265128280036987	0.0	0.9378712853216452	-1.0577421422587634	0.0	1.0095558579329436	-1.0732461091139365	0.0	1.003182587073969	-1.0690230037604713	0.0	0.9147460801957401	-1.072250729948627	0.0	0.9352729328192692	-0.2737263244351804	0.0	0.9934516865862235	-0.1335339002361337	0.0	1.0012665806915768	-0.22084387183853194	0.0	0.8849791480291029	-0.3106440253578894	0.0	0.8192452977332256	-0.47620750611569207	0.0	0.8098720345562636	-0.637060730501986	0.0	0.9296464367868637	-0.3204151208136294	0.0	0.8713394568793419	-0.46914201302955905	0.0	0.8702293550414537	-0.605307863787931	0.0
371	12.396322941646682	0.8849086806191793	-0.6152474487888456	0.0	0.8628944531166186	-0.619035915616298	0.0	0.8199645599534743	-0.8713950215055593	0.0	0.758529983838099	-1.0720386484494115	0.0	0.8523492709466256	-1.0929463110526625	0.0	0.8205118203653999	-1.1032627181378523	0.0	0.7406687622656145	-1.0876193564885506	0.0	0.9126330194628526	-0.620876880322496	0.0	0.9830281738971567	-0.8226530230292892	0.0	0.9268624752758113	-1.0541090569029756	0.0	1.0020428099197265	-1.0739351582439856	0.0	0.9956737087557774	-1.068510044605669	0.0	0.9036484544017658	-1.0699241119251883	0.0	0.9320542223965341	-0.27450883156650896	0.0	0.9905553161438305	-0.13571597286362003	0.0	0.998088638797989	-0.22260212713372357	0.0	0.8792882830258846	-0.310943890833981	0.0	0.8153279994955737	-0.4762813250861953	0.0	0.8126176942132614	-0.6381919521089368	0.0	0.9281429646814564	-0.32198400977034236	0.0	0.8723182190407583	-0.47015113998735686	0.0	0.8796744901303157	-0.6053696574590384	0.0
372	12.429736211031175	0.883432067958488	-0.6145335830771157	0.0	0.8601042212463101	-0.619324186626685	0.0	0.8178044431936886	-0.8709357859363948	0.0	0.759126182689366	-1.071686242875284	0.0	0.851510613165883	-1.0937038743269474	0.0	0.8231735221996301	-1.1027037741119394	0.0	0.7416126416697675	-1.087065896062264	0.0	0.9104057811695714	-0.6210607099741036	0.0	0.9778148559168258	-0.8215196529938437	0.0	0.9109096638180543	-1.0501370577128102	0.0	0.9903827060955847	-1.0748068818457455	0.0	0.9820972340490156	-1.0680270066231574	0.0	0.8884861474865775	-1.0669815720801588	0.0	0.9292116145384638	-0.27423880648898635	0.0	0.9875711109298335	-0.13656589821301424	0.0	0.9955312036073101	-0.22329052112226044	0.0	0.8749060032351869	-0.30970812246726265	0.0	0.8118732944120189	-0.47487635197258543	0.0	0.8171916966909702	-0.6371740237515408	0.0	0.9268932314732607	-0.322288021608022	0.0	0.8731146016554632	-0.46990586891359043	0.0	0.888076666145473	-0.6042992717128167	0.0
373	12.463149480415668	0.8837709172874109	-0.6131105972424479	0.0	0.8595478787242525	-0.6187217825578568	0.0	0.8178691295943469	-0.8695587009847505	0.0	0.7598645723941233	-1.0706770047278498	0.0	0.850789861870823	-1.0930301776338416	0.0	0.8254835747175241	-1.1009310467815479	0.0	0.7420569454761271	-1.0857361975994375	0.0	0.9096385357717053	-0.6203235498130069	0.0	0.9682297217170768	-0.8230507252910286	0.0	0.8924373513371447	-1.0463078202031506	0.0	0.9751839935070828	-1.0758120609847892	0.0	0.9643681767059487	-1.0676958697431849	0.0	0.8716712411197337	-1.0637716194539457	0.0	0.9270820034148228	-0.2733868117912666	0.0	0.985093646238914	-0.13648989592951763	0.0	0.99417323263633	-0.22335020808871503	0.0	0.8722337578082522	-0.3075148144148988	0.0	0.8091515015007837	-0.4722520106604738	0.0	0.8215419197949505	-0.6340947043041658	0.0	0.9260857241639501	-0.3216672217605991	0.0	0.8733298770598432	-0.4687259312121697	0.0	0.8930899311518077	-0.6025099137566094	0.0
374	12.496562749800159	0.885269893854469	-0.6113893467324879	0.0	0.8608296149884677	-0.617239018790828	0.0	0.8202575180653793	-0.8674015192117165	0.0	0.7610983975692593	-1.0691947123922063	0.0	0.8508058589989635	-1.0914014392689984	0.0	0.8276595503053045	-1.098735283182304	0.0	0.7421549856605459	-1.0839622204831523	0.0	0.9099052535620767	-0.6187281360374541	0.0	0.9550428358726059	-0.8267749089239098	0.0	0.8741308465930377	-1.0429663482802716	0.0	0.9585314649753554	-1.0766709555993306	0.0	0.9454050899987718	-1.0673280384910793	0.0	0.8556008404218954	-1.0608096822387794	0.0	0.9259617978156578	-0.27261039326389613	0.0	0.9837511391068454	-0.13617971182076227	0.0	0.9944862629543588	-0.22347816991475059	0.0	0.8714368509424796	-0.3053294617820684	0.0	0.8073381791440144	-0.4691050018036805	0.0	0.8234331869196237	-0.6298840330245595	0.0	0.9257383051223345	-0.32071754097487026	0.0	0.8725405188050539	-0.4672761211138958	0.0	0.8924492491247549	-0.6007667495720863	0.0
